# xmcd
#
# Track frame offsets:
#	182
#	13290
#	24730
#	38337
#	51182
#	62867
#	76845
#	90030
#	104320
#	116772
#	129012
#	142185
#
# Disc length: 2082 seconds
#
# Revision: 0
# Processed by: cddbd v1.5.2PL0 Copyright (c) Steve Scherf et al.
# Submitted via: EasyCDDAExtractor 16.0.6.1
#
DISCID=9208200c
DTITLE=Django Reinhardt and Stéphane Grappelli - The Quintet of the Hot Club of 
DTITLE=France
DYEAR=1990
DGENRE=Country
TTITLE0=Billets Doux
TTITLE1=Swing From Paris
TTITLE2=Them There Eyes
TTITLE3=Three Little Words
TTITLE4=Stompin' at Decca
TTITLE5=Black and White
TTITLE6=Honeysuckle Rose
TTITLE7=Daphne
TTITLE8=Souvenirs
TTITLE9=Night and Day
TTITLE10=My Sweet
TTITLE11=Sweet Georgia Brown
EXTD=
EXTT0=
EXTT1=
EXTT2=
EXTT3=
EXTT4=
EXTT5=
EXTT6=
EXTT7=
EXTT8=
EXTT9=
EXTT10=
EXTT11=
PLAYORDER=
